<svg width="19" height="84" viewBox="0 0 19 84" fill="none" xmlns="http://www.w3.org/2000/svg">
<path d="M12.3439 35.8509C12.1306 35.8509 11.8319 35.8295 11.4479 35.7869C11.0639 35.7335 10.6479 35.6695 10.1999 35.5949C9.75189 35.5095 9.29322 35.4189 8.82388 35.3229C8.35455 35.2162 7.93322 35.1095 7.55988 35.0029C7.05855 34.8642 6.67455 34.6509 6.40788 34.3629C6.13055 34.0642 5.99189 33.6962 5.99189 33.2589C5.99189 33.0242 6.02922 32.7949 6.10389 32.5709C6.17855 32.3362 6.27455 32.1975 6.39189 32.1549C6.64789 32.4642 6.96788 32.7149 7.35188 32.9069C7.72522 33.0882 8.13055 33.2375 8.56789 33.3549C8.99455 33.4615 9.43722 33.5469 9.89589 33.6109C10.3439 33.6642 10.7652 33.7229 11.1599 33.7869C10.6906 33.4349 10.2692 33.1042 9.89589 32.7949C9.51189 32.4749 9.20788 32.1922 8.98388 31.9469C8.67455 31.6162 8.41855 31.3922 8.21588 31.2749C8.00255 31.1575 7.77322 31.0562 7.52789 30.9709C7.33589 30.9069 7.11189 30.8322 6.85589 30.7469C6.59989 30.6509 6.36522 30.4962 6.15188 30.2829C6.14122 30.2402 6.13588 30.1495 6.13588 30.0109C6.13588 29.9042 6.14122 29.7922 6.15188 29.6749C6.16255 29.5469 6.18388 29.4295 6.21588 29.3229C6.24788 29.2162 6.28522 29.1255 6.32788 29.0509C6.37055 28.9762 6.42389 28.9335 6.48789 28.9229C6.71189 29.0935 7.06389 29.2535 7.54388 29.4029C8.01322 29.5522 8.53055 29.6855 9.09589 29.8029C9.66122 29.9202 10.2266 30.0269 10.7919 30.1229C11.3466 30.2189 11.8159 30.3042 12.1999 30.3789C12.1786 30.3362 12.0932 30.2402 11.9439 30.0909C11.7946 29.9415 11.6079 29.7762 11.3839 29.5949C11.1599 29.4029 10.9146 29.2055 10.6479 29.0029C10.3812 28.7895 10.1199 28.6029 9.86389 28.4429C9.55455 28.2402 9.26655 28.0749 8.99989 27.9469C8.72255 27.8082 8.42922 27.6909 8.11989 27.5949C7.81055 27.4882 7.46922 27.3922 7.09588 27.3069C6.71188 27.2215 6.25855 27.1309 5.73589 27.0349C5.65055 26.9709 5.58122 26.8322 5.52789 26.6189C5.46388 26.3949 5.43188 26.1922 5.43188 26.0109C5.43188 25.8509 5.45855 25.7335 5.51188 25.6589C6.10922 25.7122 6.64255 25.8135 7.11188 25.9629C7.58122 26.1015 8.03989 26.2935 8.48789 26.5389C8.92522 26.7842 9.36789 27.0882 9.81589 27.4509C10.2532 27.8135 10.7332 28.2402 11.2559 28.7309C11.4692 28.9335 11.7039 29.1575 11.9599 29.4029C12.2159 29.6375 12.4559 29.8722 12.6799 30.1069C12.8932 30.3309 13.0746 30.5442 13.2239 30.7469C13.3732 30.9389 13.4479 31.0882 13.4479 31.1949C13.4479 31.4402 13.3519 31.6429 13.1599 31.8029C12.9679 31.9629 12.7226 32.0429 12.4239 32.0429C12.1146 32.0429 11.8479 32.0322 11.6239 32.0109C11.3892 31.9789 11.1439 31.9309 10.8879 31.8669C10.6532 31.8029 10.4559 31.7549 10.2959 31.7229C10.1359 31.6802 9.99722 31.6482 9.87989 31.6269C9.76255 31.5949 9.66122 31.5735 9.57589 31.5629C9.49055 31.5522 9.40522 31.5415 9.31989 31.5309C9.36255 31.6162 9.45322 31.7282 9.59189 31.8669C9.71989 32.0055 9.87455 32.1495 10.0559 32.2989C10.2266 32.4482 10.4026 32.5975 10.5839 32.7469C10.7652 32.8962 10.9199 33.0189 11.0479 33.1149C11.3252 33.3175 11.5706 33.4935 11.7839 33.6429C11.9972 33.7922 12.1999 33.9362 12.3919 34.0749C12.5839 34.2029 12.7812 34.3309 12.9839 34.4589C13.1759 34.5869 13.3839 34.7362 13.6079 34.9069C13.5012 35.2482 13.3412 35.4935 13.1279 35.6429C12.9146 35.7815 12.6532 35.8509 12.3439 35.8509Z" fill="#5F5E5E"/>
<path d="M13.5599 41.1694C13.4959 41.7774 13.2292 42.2627 12.7599 42.6254C12.2906 42.988 11.6932 43.1694 10.9679 43.1694C10.5412 43.1694 10.0986 43.1054 9.63988 42.9774C9.18122 42.8494 8.73855 42.668 8.31189 42.4334C7.87455 42.1987 7.46389 41.9214 7.07989 41.6014C6.69589 41.2814 6.36522 40.9347 6.08788 40.5614C5.65055 39.9747 5.43188 39.4254 5.43188 38.9134C5.61322 38.572 5.99188 38.236 6.56789 37.9054C6.56789 37.852 6.56789 37.804 6.56789 37.7614C6.55722 37.7187 6.55189 37.6707 6.55189 37.6174C6.55189 37.052 7.05322 36.7694 8.05589 36.7694C8.72789 36.7694 9.36789 36.8814 9.97589 37.1054C10.5732 37.3187 11.1172 37.6227 11.6079 38.0174C12.0986 38.4014 12.5146 38.8654 12.8559 39.4094C13.1866 39.9427 13.4212 40.5294 13.5599 41.1694ZM8.51989 40.3534C8.76522 40.5347 9.03189 40.7054 9.31989 40.8654C9.60789 41.0254 9.90122 41.164 10.1999 41.2814C10.4879 41.3987 10.7706 41.4894 11.0479 41.5534C11.3146 41.6174 11.5546 41.6494 11.7679 41.6494C12.0239 41.6494 12.2692 41.6067 12.5039 41.5214C12.7386 41.436 12.8719 41.34 12.9039 41.2334C12.7972 40.7534 12.5999 40.316 12.3119 39.9214C12.0132 39.516 11.6452 39.1694 11.2079 38.8814C10.7706 38.5827 10.2746 38.3534 9.71988 38.1934C9.16522 38.0227 8.57322 37.9374 7.94389 37.9374C7.66655 37.9374 7.44789 37.9534 7.28789 37.9854C7.12789 38.0174 6.98922 38.0707 6.87189 38.1454C7.01055 38.6147 7.23455 39.036 7.54389 39.4094C7.85322 39.772 8.17855 40.0867 8.51989 40.3534Z" fill="#5F5E5E"/>
<path d="M14.2159 52.0694C14.0345 52.6774 13.8585 53.088 13.6879 53.3014C13.5279 53.5147 13.3039 53.6214 13.0159 53.6214C12.6959 53.6214 12.2479 53.5467 11.6719 53.3974C11.0852 53.248 10.4345 53.056 9.71988 52.8214C9.00521 52.576 8.25854 52.2987 7.47988 51.9894C6.70121 51.68 5.95454 51.3654 5.23988 51.0454C4.52521 50.7254 3.87454 50.416 3.28788 50.1174C2.69054 49.808 2.22654 49.536 1.89588 49.3014L1.22388 49.4134C1.22388 49.264 1.26121 49.056 1.33588 48.7894C1.41054 48.5227 1.50121 48.256 1.60788 47.9894C1.71454 47.712 1.82654 47.472 1.94388 47.2694C2.05054 47.056 2.14121 46.9387 2.21588 46.9174C2.47188 46.9707 2.86121 47.0134 3.38388 47.0454C3.89588 47.0774 4.44521 47.0934 5.03188 47.0934C6.19454 47.0934 7.33588 47.0507 8.45588 46.9654C9.56521 46.8694 10.6959 46.656 11.8479 46.3254C10.9945 46.1547 10.1465 45.9734 9.30388 45.7814C8.45054 45.5787 7.63988 45.3707 6.87188 45.1574C6.09321 44.944 5.37321 44.7307 4.71188 44.5174C4.05054 44.304 3.47454 44.1014 2.98388 43.9094C2.48254 43.7067 2.09321 43.52 1.81588 43.3494C1.52788 43.1787 1.37321 43.024 1.35188 42.8854C1.37321 42.768 1.42121 42.64 1.49588 42.5014C1.55988 42.3627 1.63988 42.2294 1.73588 42.1014C1.83188 41.9734 1.93854 41.856 2.05588 41.7494C2.17321 41.6427 2.29054 41.5574 2.40788 41.4934C2.54654 41.8347 2.87188 42.176 3.38388 42.5174C3.89588 42.848 4.51988 43.168 5.25588 43.4774C5.98121 43.776 6.77054 44.0587 7.62388 44.3254C8.47721 44.5814 9.31988 44.8107 10.1519 45.0134C10.9732 45.2054 11.7359 45.36 12.4399 45.4774C13.1439 45.584 13.7092 45.6427 14.1359 45.6534C14.1572 45.6534 14.1732 45.648 14.1839 45.6374C14.1945 45.6694 14.1999 45.7067 14.1999 45.7494C14.1999 45.7814 14.1999 45.8134 14.1999 45.8454C14.1999 46.336 14.1359 46.7734 14.0079 47.1574C13.8905 47.5307 13.7199 47.776 13.4959 47.8934C12.5999 48.1174 11.7359 48.304 10.9039 48.4534C10.0719 48.6027 9.23988 48.7307 8.40788 48.8374C7.57588 48.9334 6.73854 49.0134 5.89588 49.0774C5.04254 49.1307 4.15188 49.1734 3.22388 49.2054C3.54388 49.408 3.96521 49.6214 4.48788 49.8454C4.99988 50.0694 5.56521 50.288 6.18388 50.5014C6.80254 50.7147 7.45321 50.9227 8.13588 51.1254C8.81854 51.3174 9.48521 51.488 10.1359 51.6374C10.7865 51.7867 11.4052 51.904 11.9919 51.9894C12.5679 52.0747 13.0692 52.1174 13.4959 52.1174C13.7199 52.1174 13.8799 52.1174 13.9759 52.1174C14.0719 52.1067 14.1519 52.0907 14.2159 52.0694Z" fill="#5F5E5E"/>
<path d="M10.5198 59.182C11.2984 59.4273 12.0078 59.6727 12.6478 59.918C13.2878 60.1633 13.8744 60.4247 14.4078 60.702C14.9518 60.9793 15.4478 61.278 15.8958 61.598C16.3544 61.918 16.7864 62.27 17.1918 62.654C17.7038 63.1447 18.0931 63.6513 18.3598 64.174C18.6371 64.6967 18.7758 65.2193 18.7758 65.742C18.7758 66.0087 18.7438 66.2753 18.6798 66.542C18.6264 66.798 18.5464 67.038 18.4398 67.262C18.3438 67.4967 18.2264 67.6993 18.0878 67.87C17.9598 68.0513 17.8211 68.1793 17.6718 68.254C17.5438 68.254 17.4318 68.1793 17.3358 68.03C17.4531 67.902 17.5438 67.7953 17.6078 67.71C17.6718 67.6247 17.7251 67.5393 17.7678 67.454C17.8104 67.3793 17.8371 67.294 17.8478 67.198C17.8584 67.1127 17.8638 67.0113 17.8638 66.894C17.8638 66.286 17.6824 65.694 17.3198 65.118C16.9678 64.5313 16.4611 63.982 15.7998 63.47C15.1491 62.9473 14.3544 62.4727 13.4158 62.046C12.4878 61.6193 11.4478 61.2567 10.2958 60.958C10.5091 61.0967 10.7704 61.2673 11.0798 61.47C11.3891 61.6727 11.6984 61.8967 12.0078 62.142C12.3064 62.3873 12.5784 62.6433 12.8238 62.91C13.0691 63.166 13.2344 63.4167 13.3198 63.662C13.3091 63.8327 13.2718 64.014 13.2078 64.206C13.1544 64.3873 13.0744 64.5633 12.9678 64.734C12.8611 64.894 12.7331 65.038 12.5838 65.166C12.4344 65.294 12.2638 65.3793 12.0718 65.422C11.7624 65.422 11.5171 65.4113 11.3358 65.39C11.1438 65.3687 10.9358 65.3313 10.7118 65.278C10.3064 65.182 9.84777 65.0433 9.33577 64.862C8.82377 64.67 8.32244 64.4513 7.83177 64.206C7.33044 63.95 6.86644 63.6727 6.43977 63.374C6.00244 63.0647 5.6611 62.7447 5.41577 62.414C5.41577 62.3287 5.42644 62.222 5.44777 62.094C5.45844 61.966 5.4851 61.8327 5.52777 61.694C5.57044 61.5553 5.62377 61.422 5.68777 61.294C5.7411 61.166 5.81577 61.054 5.91177 60.958C6.01844 61.0753 6.37577 61.3313 6.98377 61.726C7.59177 62.1207 8.46644 62.558 9.60777 63.038C9.72511 63.0913 9.89577 63.1553 10.1198 63.23C10.3438 63.3047 10.5784 63.3793 10.8238 63.454C11.0691 63.518 11.3091 63.5767 11.5438 63.63C11.7784 63.6833 11.9651 63.71 12.1038 63.71C12.1891 63.71 12.2531 63.6993 12.2958 63.678C12.3384 63.646 12.3704 63.6193 12.3918 63.598C12.3598 63.406 12.2051 63.15 11.9278 62.83C11.6398 62.51 11.1971 62.1473 10.5998 61.742C10.2158 61.486 9.8371 61.2513 9.46377 61.038C9.07977 60.8247 8.69577 60.6167 8.31177 60.414C7.92777 60.2007 7.53311 59.982 7.12777 59.758C6.72244 59.534 6.30644 59.294 5.87977 59.038C5.87977 58.8993 5.89577 58.75 5.92777 58.59C5.95977 58.43 6.00244 58.2753 6.05577 58.126C6.09844 57.9767 6.15177 57.8487 6.21577 57.742C6.2691 57.6247 6.32777 57.5393 6.39177 57.486C7.09577 57.8167 7.78377 58.126 8.45577 58.414C9.12777 58.702 9.81577 58.958 10.5198 59.182Z" fill="#5F5E5E"/>
<path d="M12.6478 68.6897C12.4771 68.8924 12.2638 69.0311 12.0078 69.1057C11.7518 69.1697 11.5331 69.2017 11.3518 69.2017C11.1278 69.2017 10.9358 69.1751 10.7758 69.1217C10.7758 69.1644 10.8611 69.2604 11.0318 69.4097C11.2024 69.5591 11.4051 69.7244 11.6398 69.9057C11.8744 70.0764 12.1038 70.2471 12.3278 70.4177C12.5518 70.5884 12.7171 70.7164 12.8238 70.8017C12.9731 70.9404 13.0904 71.0737 13.1758 71.2017C13.2611 71.3191 13.3091 71.4151 13.3198 71.4897C13.3091 71.6604 13.2718 71.8417 13.2078 72.0337C13.1544 72.2151 13.0744 72.3911 12.9678 72.5617C12.8611 72.7217 12.7331 72.8657 12.5838 72.9937C12.4344 73.1111 12.2638 73.1911 12.0718 73.2337C11.7731 73.2337 11.5278 73.2284 11.3358 73.2177C11.1438 73.1964 10.9358 73.1591 10.7118 73.1057C10.3064 73.0097 9.84777 72.8711 9.33577 72.6897C8.82377 72.4977 8.32244 72.2791 7.83177 72.0337C7.33044 71.7884 6.86644 71.5164 6.43977 71.2177C6.00244 70.9084 5.6611 70.5831 5.41577 70.2417C5.41577 70.1457 5.42644 70.0337 5.44777 69.9057C5.45844 69.7777 5.48511 69.6497 5.52777 69.5217C5.57044 69.3831 5.62377 69.2551 5.68777 69.1377C5.7411 69.0097 5.81577 68.9031 5.91177 68.8177C6.01844 68.9137 6.37577 69.1591 6.98377 69.5537C7.59177 69.9377 8.46644 70.3697 9.60777 70.8497C9.72511 70.9031 9.89577 70.9671 10.1198 71.0417C10.3438 71.1164 10.5784 71.1911 10.8238 71.2657C11.0691 71.3404 11.3091 71.4044 11.5438 71.4577C11.7784 71.5004 11.9651 71.5217 12.1038 71.5217C12.1891 71.5217 12.2531 71.5111 12.2958 71.4897C12.3384 71.4577 12.3704 71.4311 12.3918 71.4097C12.3278 71.2497 12.1518 71.0471 11.8638 70.8017C11.5758 70.5564 11.1331 70.2151 10.5358 69.7777C10.3864 69.6711 10.2158 69.5484 10.0238 69.4097C9.83177 69.2604 9.62911 69.1111 9.41577 68.9617C9.19177 68.8124 8.96244 68.6737 8.72777 68.5457C8.49311 68.4071 8.25844 68.2951 8.02377 68.2097C7.89577 68.1671 7.74644 68.1137 7.57577 68.0497C7.39444 67.9751 7.20777 67.8897 7.01577 67.7937C6.82377 67.6871 6.63177 67.5697 6.43977 67.4417C6.2371 67.3031 6.05044 67.1431 5.87977 66.9617C5.87977 66.8231 5.89577 66.6737 5.92777 66.5137C5.95977 66.3537 6.00244 66.2044 6.05577 66.0657C6.09844 65.9164 6.15177 65.7884 6.21577 65.6817C6.2691 65.5751 6.32777 65.4951 6.39177 65.4417C6.86111 65.6337 7.32511 65.8471 7.78377 66.0817C8.24244 66.3164 8.69577 66.5351 9.14377 66.7377C9.58111 66.9404 10.0184 67.1111 10.4558 67.2497C10.8931 67.3884 11.3198 67.4577 11.7358 67.4577C11.9598 67.4577 12.1571 67.4417 12.3278 67.4097C12.4878 67.3671 12.6264 67.3244 12.7438 67.2817C12.8504 67.2391 12.9411 67.2017 13.0158 67.1697C13.0904 67.1271 13.1544 67.1057 13.2078 67.1057C13.2184 67.1057 13.2344 67.1164 13.2558 67.1377C13.2664 67.1484 13.2718 67.1591 13.2718 67.1697C13.2718 67.2444 13.2558 67.3404 13.2238 67.4577C13.1918 67.5751 13.1438 67.7084 13.0798 67.8577C13.0264 67.9964 12.9624 68.1404 12.8878 68.2897C12.8131 68.4284 12.7331 68.5617 12.6478 68.6897Z" fill="#5F5E5E"/>
<path d="M4.18384 73.36C4.84518 73.36 5.43717 73.5413 5.95984 73.904C6.47184 74.2667 6.89851 74.7627 7.23984 75.392C7.51718 74.9867 7.85851 74.6667 8.26384 74.432C8.65851 74.1867 9.09584 74.064 9.57584 74.064C10.1518 74.064 10.7225 74.24 11.2878 74.592C11.8425 74.9333 12.3385 75.392 12.7758 75.968C13.2025 76.544 13.5492 77.2 13.8158 77.936C14.0825 78.672 14.2158 79.424 14.2158 80.192C14.2158 81.024 14.0558 81.7547 13.7358 82.384C13.4265 83.0027 12.9838 83.488 12.4078 83.84C12.0878 83.7333 11.6932 83.5947 11.2238 83.424C10.7438 83.2427 10.2425 83.0453 9.71984 82.832C9.18651 82.6187 8.65851 82.4053 8.13584 82.192C7.61318 81.968 7.14384 81.76 6.72784 81.568C5.82118 81.1627 5.06918 80.8 4.47184 80.48C3.87451 80.16 3.39984 79.8667 3.04784 79.6C3.22918 80.1867 3.43718 80.72 3.67184 81.2C3.89584 81.68 4.11451 82.032 4.32784 82.256C4.26384 82.352 4.16784 82.4533 4.03984 82.56C3.91184 82.656 3.77318 82.752 3.62384 82.848C3.46384 82.9333 3.30384 83.008 3.14384 83.072C2.98384 83.1253 2.83984 83.1573 2.71184 83.168C2.51984 82.8907 2.33851 82.5333 2.16784 82.096C1.98651 81.648 1.83184 81.1627 1.70384 80.64C1.57584 80.1173 1.47451 79.584 1.39984 79.04C1.32518 78.4853 1.28784 77.9573 1.28784 77.456C1.28784 76.176 1.54384 75.1733 2.05584 74.448C2.56784 73.7227 3.27718 73.36 4.18384 73.36ZM8.00784 79.456C7.91184 79.6587 7.76784 79.8453 7.57584 80.016C8.11984 80.2613 8.65318 80.496 9.17584 80.72C9.69851 80.9333 10.1838 81.1253 10.6318 81.296C11.0798 81.4667 11.4692 81.6053 11.7998 81.712C12.1305 81.8187 12.3705 81.8773 12.5198 81.888C12.6052 81.7387 12.6692 81.5627 12.7118 81.36C12.7545 81.1467 12.7758 80.8853 12.7758 80.576C12.7758 79.8507 12.6745 79.1573 12.4718 78.496C12.2692 77.8347 11.9972 77.2533 11.6558 76.752C11.3038 76.2507 10.9038 75.8507 10.4558 75.552C10.0078 75.2533 9.53851 75.104 9.04784 75.104C8.34384 75.104 7.83718 75.408 7.52784 76.016C7.86918 76.848 8.03984 77.7867 8.03984 78.832C8.03984 78.9813 8.03984 79.0987 8.03984 79.184C8.03984 79.2587 8.02918 79.3493 8.00784 79.456ZM2.45584 76.352C2.45584 76.576 2.47184 76.816 2.50384 77.072C2.52518 77.3173 2.56251 77.5787 2.61584 77.856C2.65851 77.8133 2.70651 77.7813 2.75984 77.76C2.80251 77.728 2.85051 77.7013 2.90384 77.68C3.03184 77.776 3.21851 77.8933 3.46384 78.032C3.70918 78.1707 3.99718 78.3253 4.32784 78.496C4.64784 78.6667 5.00518 78.848 5.39984 79.04C5.79451 79.2213 6.19984 79.408 6.61584 79.6C6.57317 79.4187 6.54118 79.2 6.51984 78.944C6.48784 78.6773 6.47184 78.416 6.47184 78.16C6.47184 78.0213 6.47718 77.888 6.48784 77.76C6.49851 77.6213 6.51451 77.488 6.53584 77.36C6.45051 76.848 6.32784 76.3893 6.16784 75.984C5.99717 75.568 5.80517 75.2107 5.59184 74.912C5.36784 74.6133 5.12251 74.384 4.85584 74.224C4.58918 74.064 4.30651 73.984 4.00784 73.984C3.49584 73.984 3.11184 74.1867 2.85584 74.592C2.58918 74.9973 2.45584 75.584 2.45584 76.352Z" fill="#5F5E5E"/>
<path d="M9.9999 19C8.33323 15.8333 5.4999 7.8 7.4999 1M7.4999 1L1 6.5M7.4999 1L12 6.5" stroke="#5F5E5E" stroke-linecap="round" stroke-linejoin="round"/>
</svg>
